<svg xmlns="http://www.w3.org/2000/svg" viewBox="0 0 184.4 62.5"><defs><style>.cls-1{fill:#fff;}.cls-2{fill:#b4be35;}</style></defs><title>kma-logo</title><g id="Layer_2" data-name="Layer 2"><g id="Layer_1-2" data-name="Layer 1"><path class="cls-1" d="M9.5,62.2l-.8-7.8H6.8L5.5,58.7a11.74,11.74,0,0,0-.4,1.6,11.74,11.74,0,0,0-.4-1.6L3.4,54.4H1.5L.7,62.2H2l.4-4.7c0-.6.1-1.5.1-1.6a9,9,0,0,0,.4,1.6l1.5,4.7H5.6l1.6-4.8a11.65,11.65,0,0,0,.4-1.5,11.8,11.8,0,0,0,.1,1.6l.4,4.7Z"/><path class="cls-1" d="M19.7,62.2l-2.9-7.8H15.2l-2.9,7.8h1.4l.7-2h2.9l.7,2ZM17.1,59H14.9c.1-.2,1.1-3.2,1.1-3.4.1.2,1,3.2,1.1,3.4Z"/><path class="cls-1" d="M29.6,62.2s-.7-1-1.2-1.6-.9-1.1-1.1-1.4l-.4-.4a2.22,2.22,0,0,0,1.3-4,4,4,0,0,0-2.2-.5H23.7v7.8h1.4V58.8a.91.91,0,0,1,.7.3A7.08,7.08,0,0,1,27.3,61a7.46,7.46,0,0,1,.7,1.2Zm-1.9-5.6a1,1,0,0,1-.4.9c-.3.3-.7.4-1.5.4H25V55.5h.9a2.79,2.79,0,0,1,1,.1,1.05,1.05,0,0,1,.8,1Z"/><polygon class="cls-1" points="40.2 62.2 36.9 58 40.1 54.4 38.3 54.4 35.4 58 35.4 54.4 33.9 54.4 33.9 62.2 35.4 62.2 35.4 58.1 38.4 62.2 40.2 62.2"/><polygon class="cls-1" points="49 62.2 49 61 45.3 61 45.3 58.7 48.1 58.7 48.1 57.5 45.3 57.5 45.3 55.5 48.6 55.5 48.8 54.4 43.9 54.4 43.9 62.2 49 62.2"/><polygon class="cls-1" points="58.3 54.4 52.3 54.4 52.3 55.5 54.5 55.5 54.5 62.2 55.9 62.2 55.9 55.5 58.1 55.5 58.3 54.4"/><polygon class="cls-1" points="63.8 62.2 63.8 54.4 62.4 54.4 62.4 62.2 63.8 62.2"/><path class="cls-1" d="M74.7,62.2V54.4H73.4v3.7c0,.9.1,1.9.1,2.1l-.9-1.8-2.3-3.9H68.7v7.8h1.4L70,58.6c0-1-.1-1.8-.1-2.2.1.1.6,1.2,1,2l2.2,3.9h1.6Z"/><path class="cls-1" d="M85.3,61.6V57.9H82.1l.2,1.1h1.6v2a3.73,3.73,0,0,1-1.2.2,2.3,2.3,0,0,1-1.4-.4c-.7-.4-1-1.2-1-2.5a5.41,5.41,0,0,1,.3-1.9,2,2,0,0,1,2-1.1,3.08,3.08,0,0,1,1.9.6l.7-.9a4,4,0,0,0-2.6-.8,3.51,3.51,0,0,0-2.3.7,3.75,3.75,0,0,0-1.5,3.3,4,4,0,0,0,1,2.9,3.84,3.84,0,0,0,2.9,1.1,4,4,0,0,0,2.6-.6Z"/><path class="cls-1" d="M102,62.2l-2.9-7.8H97.5l-2.9,7.8H96l.7-2h2.9l.7,2ZM99.4,59H97.2c.1-.2,1.1-3.2,1.1-3.4,0,.2,1,3.2,1.1,3.4Z"/><path class="cls-1" d="M111.2,59.8a1.82,1.82,0,0,0-.6-1.4,3,3,0,0,0-1.6-.8l-1.1-.3c-.9-.2-1.2-.5-1.2-1s.6-1,1.5-1a4.2,4.2,0,0,1,2.1.6l.6-1a5.12,5.12,0,0,0-2.8-.8c-1.7,0-3,1-3,2.3a2,2,0,0,0,.3,1.1,2.62,2.62,0,0,0,1.6,1l1.1.3c1,.3,1.4.6,1.4,1.2a1,1,0,0,1-.6.9,2.13,2.13,0,0,1-1.2.3,5,5,0,0,1-2.4-.6l-.5,1.1a5.92,5.92,0,0,0,2.9.7,3.64,3.64,0,0,0,2.1-.5,2.26,2.26,0,0,0,1.4-2.1Z"/><path class="cls-1" d="M120.8,59.8a1.82,1.82,0,0,0-.6-1.4,3,3,0,0,0-1.6-.8l-1.1-.3c-.9-.2-1.2-.5-1.2-1s.6-1,1.5-1a4.2,4.2,0,0,1,2.1.6l.6-1a5.12,5.12,0,0,0-2.8-.8c-1.7,0-3,1-3,2.3a2,2,0,0,0,.3,1.1,2.62,2.62,0,0,0,1.6,1l1.1.3c1,.3,1.4.6,1.4,1.2a1,1,0,0,1-.6.9,2.13,2.13,0,0,1-1.2.3,5,5,0,0,1-2.4-.6l-.5,1.1a5.92,5.92,0,0,0,2.9.7,3.64,3.64,0,0,0,2.1-.5,2.26,2.26,0,0,0,1.4-2.1Z"/><path class="cls-1" d="M131.8,58.3a4.45,4.45,0,0,0-.8-2.8,3.49,3.49,0,0,0-2.8-1.2c-2.2,0-3.6,1.5-3.6,4a3.72,3.72,0,0,0,1.1,3,3.25,3.25,0,0,0,2.6,1,3.36,3.36,0,0,0,2.8-1.2,5.49,5.49,0,0,0,.7-2.8Zm-1.6.1a4.5,4.5,0,0,1-.3,1.8,1.68,1.68,0,0,1-1.8,1.1,1.88,1.88,0,0,1-1.7-.8,4.62,4.62,0,0,1-.5-2.3,3.52,3.52,0,0,1,.4-2,1.82,1.82,0,0,1,1.6-.8,1.9,1.9,0,0,1,1.8,1,2.68,2.68,0,0,1,.5,2Z"/><path class="cls-1" d="M141.2,61.6l-.7-.9a3,3,0,0,1-1.6.5,2.14,2.14,0,0,1-1.7-.8,2.77,2.77,0,0,1-.6-2.2,3.58,3.58,0,0,1,.4-1.9,2.14,2.14,0,0,1,1.9-1.1,2.6,2.6,0,0,1,1.5.4l.7-.9a3.8,3.8,0,0,0-2.2-.6,4,4,0,0,0-3.2,1.7,4.81,4.81,0,0,0-.7,2.4,4.43,4.43,0,0,0,1.1,3,4,4,0,0,0,2.6,1,3.25,3.25,0,0,0,2.5-.6Z"/><polygon class="cls-1" points="146.5 62.2 146.5 54.4 145.1 54.4 145.1 62.2 146.5 62.2"/><path class="cls-1" d="M157.5,62.2l-2.9-7.8H153l-2.9,7.8h1.4l.7-2h2.9l.7,2ZM154.9,59h-2.2c.1-.2,1.1-3.2,1.1-3.4,0,.2,1,3.2,1.1,3.4Z"/><polygon class="cls-1" points="165.5 54.4 159.5 54.4 159.5 55.5 161.7 55.5 161.7 62.2 163.1 62.2 163.1 55.5 165.3 55.5 165.5 54.4"/><polygon class="cls-1" points="174 62.2 174 61 170.4 61 170.4 58.7 173.2 58.7 173.2 57.5 170.4 57.5 170.4 55.5 173.7 55.5 173.9 54.4 169 54.4 169 62.2 174 62.2"/><path class="cls-1" d="M183.9,59.8a1.82,1.82,0,0,0-.6-1.4,3,3,0,0,0-1.6-.8l-1.1-.3c-.9-.2-1.2-.5-1.2-1s.6-1,1.5-1a4.2,4.2,0,0,1,2.1.6l.6-1a5.12,5.12,0,0,0-2.8-.8c-1.7,0-3,1-3,2.3a2,2,0,0,0,.3,1.1,2.62,2.62,0,0,0,1.6,1l1.3.4c1,.3,1.4.6,1.4,1.2a1,1,0,0,1-.6.9,2.13,2.13,0,0,1-1.2.3,5,5,0,0,1-2.4-.6l-.5,1.1a5.92,5.92,0,0,0,2.9.7,3.64,3.64,0,0,0,2.1-.5,2.75,2.75,0,0,0,1.2-2.2Z"/><path id="k" class="cls-1" d="M30.7,45H16.8V42.9h.3c1.4,0,3.1-.2,3.1-1.2,0-.1-.2-.7-2.1-3l-6.7-7.8-1.1.8v3.7c0,2.8,0,4.6.1,5.4a2.75,2.75,0,0,0,.8,1.5,4.59,4.59,0,0,0,2.7.5h.3v2.1H0v-2H1.3c1.9,0,2.6-.3,2.8-.6a2.25,2.25,0,0,0,.8-1.4c0-.6.1-2.4.1-5.4V12a11.26,11.26,0,0,0-.7-4.8c-.4-.6-1.5-1-3.3-1H.7v-2H1a29.05,29.05,0,0,0,4.6-.5,15,15,0,0,0,3.6-.9h1.1V29.3l2.4-1.7c5.5-3.9,6.7-5.8,6.7-6.7,0-.3,0-1.2-2.2-1.2h-.3V17.6H28.3v2.1H28c-1.9,0-4.5,1.5-7.8,4.4q-1.5,1.35-4.8,3.9l9.4,11a19.84,19.84,0,0,0,3.3,3.3,5.69,5.69,0,0,0,2.4.8h.3V45Z"/><path id="e" class="cls-1" d="M42.6,46A13.18,13.18,0,0,1,31,39.3a14.57,14.57,0,0,1-2-7.8,15.55,15.55,0,0,1,3.8-10.7,12,12,0,0,1,9.5-4.3q5.4,0,8.4,3.3a14.47,14.47,0,0,1,3.1,8.3v.3H35.1a3.78,3.78,0,0,1-.1.8v.6c0,4.6.7,8.2,2.1,10.5a6.91,6.91,0,0,0,6.4,3.4,8.29,8.29,0,0,0,8.2-5.2l.1-.2h2.1l-.1.4a9.57,9.57,0,0,1-4.3,5.4A12.81,12.81,0,0,1,42.6,46ZM35.3,26.2H49.2a8.64,8.64,0,0,0,.1-1.5c-.3-5.8-6.7-5.8-6.9-5.8h-.3C38.4,19,36.1,21.5,35.3,26.2Z"/><path id="r" class="cls-1" d="M69.3,45H54.5V42.9h1a5.39,5.39,0,0,0,2.6-.5,2,2,0,0,0,.9-1.3,49.21,49.21,0,0,0,.2-5.6V27.9c0-2.8,0-4.7-.1-5.4a1.87,1.87,0,0,0-.8-1.5,4.47,4.47,0,0,0-2.7-.6h-1v-2h.2a46.42,46.42,0,0,0,8-1.9l.3-.1.1.3a20.89,20.89,0,0,1,1,5.7,12,12,0,0,1,3.2-3.9,8.46,8.46,0,0,1,5.1-2,4.9,4.9,0,0,1,3.6,1.4,4.05,4.05,0,0,1,1.3,2.9,2.41,2.41,0,0,1-.7,1.8,2.46,2.46,0,0,1-1.7.8c-1.2,0-2.1-.9-2.8-2.6-.3-1-.8-1.4-1.5-1.4-.9,0-1.9.6-3.2,1.8A7.62,7.62,0,0,0,65.1,25a20.91,20.91,0,0,0-.5,5.6v4.8c0,2.8,0,4.6.1,5.4a1.87,1.87,0,0,0,.8,1.5,4.59,4.59,0,0,0,2.7.5h1.2V45Z"/><path id="i" class="cls-1" d="M94.7,45h-15V42.9h1.4c1.8,0,2.5-.3,2.8-.6a2.1,2.1,0,0,0,.7-1.4c.1-.6.1-2.4.1-5.4V27.4c0-3.8-.2-5.2-.4-5.6a2.47,2.47,0,0,0-1-1.2,7.93,7.93,0,0,0-2.5-.2H79.6v-2h.3a45.14,45.14,0,0,0,9-1.7H90v19c0,2.8,0,4.6.1,5.4a2.19,2.19,0,0,0,.8,1.5,4.59,4.59,0,0,0,2.7.5h1V45Z"/><path id="g" class="cls-1" d="M108.9,45.7A13.68,13.68,0,0,1,94.8,31.6a16,16,0,0,1,3.8-10.5A13.2,13.2,0,0,1,109,16.5a12.5,12.5,0,0,1,8.7,3.4,10.62,10.62,0,0,0,.4-1.9l.1-.6h2.2V27.7h-2.2l-.1-.6a10.92,10.92,0,0,0-2.9-6.2,8.08,8.08,0,0,0-5.8-2.2,8.32,8.32,0,0,0-6.1,2.6c-1.7,1.7-2.6,4.9-2.6,9.5s.9,7.8,2.5,9.7a7.87,7.87,0,0,0,6.2,2.8,8.17,8.17,0,0,0,3.5-.8,4,4,0,0,0,2-1.8,5.62,5.62,0,0,0,.5-2.8,14.62,14.62,0,0,0-.2-2.6c-.2-.4-.4-.6-.5-.6a5.12,5.12,0,0,0-1.9-.2h-1.3V32.2h12.9v2.3h-.7a5.64,5.64,0,0,0-2.3.3,1.22,1.22,0,0,0-.6.9,22.58,22.58,0,0,0-.2,4.2v3.6l-.8-.1c-.3,0-.5-.1-.7-.1a11.82,11.82,0,0,0-3.8.9A14.2,14.2,0,0,1,108.9,45.7Z"/><path id="an" class="cls-1" d="M184.3,42.9a10,10,0,0,1-3.1-.4,1.76,1.76,0,0,1-.9-1.3,49.21,49.21,0,0,1-.2-5.6V27.2a20.55,20.55,0,0,0-.6-5.7,6.23,6.23,0,0,0-2.8-3.5,9.83,9.83,0,0,0-5.4-1.4,11.82,11.82,0,0,0-5.5,1.4,17,17,0,0,0-4.6,3.7,19.17,19.17,0,0,0-.8-4.9l-.1-.2h-1.2a49.86,49.86,0,0,1-7.3,1.5h-.3v2h.3a7.27,7.27,0,0,1,3.1.5,1.76,1.76,0,0,1,.9,1.3,49.21,49.21,0,0,1,.2,5.6v8a52.61,52.61,0,0,1-.2,5.8,1.78,1.78,0,0,1-.9,1.2.35.35,0,0,1-.2.1,5,5,0,0,1-2.7.9,4,4,0,0,1-3.1-1.7c-.3-.4-.3-1.9-.3-3.7V26.3a13.43,13.43,0,0,0-.8-5.2,7.09,7.09,0,0,0-3.1-3.1,13.57,13.57,0,0,0-6.6-1.3c-3.8,0-6.6.7-8.4,2.2s-2.8,2.9-2.8,4.2a2,2,0,0,0,2.3,2.2c1.6,0,2.7-1.2,3-3.6.3-2,2-3,5.2-3a6.89,6.89,0,0,1,3.8.9,3.74,3.74,0,0,1,1.7,2.1,17.87,17.87,0,0,1,.3,3.9v1.1l-4.9,2a47.8,47.8,0,0,0-9.2,4.9,7.74,7.74,0,0,0-3.4,6.1,5.36,5.36,0,0,0,2.1,4.4,7.6,7.6,0,0,0,4.9,1.6,12.09,12.09,0,0,0,4.9-1.2,29.28,29.28,0,0,0,5.7-3.3v.1a4.14,4.14,0,0,0,1.1,2.7c1,.9,2.7,1,4.1,1h17.1V42.9h-.3a9.51,9.51,0,0,1-3.1-.4,2,2,0,0,1-.9-1.3,50.64,50.64,0,0,1-.2-5.6V24.7a14.26,14.26,0,0,1,4-4.1,8.16,8.16,0,0,1,4.4-1.4,5.18,5.18,0,0,1,3.3,1,3.91,3.91,0,0,1,1.6,2.3,22.88,22.88,0,0,1,.3,4.4v8.6c0,3,0,4.8-.1,5.4a2.67,2.67,0,0,1-.7,1.4c-.3.3-1,.6-2.9.6h-.9V45h14.3V42.9Zm-40.6-4a21.8,21.8,0,0,1-4.5,3,7.87,7.87,0,0,1-3.6,1,3.49,3.49,0,0,1-2.8-1.2,5.24,5.24,0,0,1-1.1-3.3c0-3.5,2.8-6.3,8.4-8.6l3.6-1.4V38.9Z"/><path id="triangle" class="cls-2" d="M87.3.1a6.59,6.59,0,0,1,.2.9,13.18,13.18,0,0,0,5.7,7.2l-.1.5a8.41,8.41,0,0,0-1-.4,15.45,15.45,0,0,0-11,.3L81,8.2A13.76,13.76,0,0,0,86.7.9a2.68,2.68,0,0,0,.2-.9h.4Z"/></g></g></svg>